/* XPM */
static char *result[] = {
/* columns rows colors chars-per-pixel */
"24 24 11 1 ",
"  c black",
". c #980000",
"X c #D03800",
"o c #A06800",
"O c #D8B000",
"+ c #F88058",
"@ c #502898",
"# c #8860B8",
"$ c #B090D8",
"% c #F8F8F8",
"& c #FFFFFF",
/* pixels */
"&&&&&&&&&&&&&&&&&&&&&&&&",
"&&&OO&&&&&&&&&&&&&OO&&&&",
"&&OOoO&&&&&&&&&&&OOOO&&&",
"&&OOOo&&&&&&&&&&&OOoO&&&",
"&&&Ooo&&&&   &&&&ooOo&&&",
"&&&&&&&&& #$# &&&&oo&&&&",
"&&&&&&&  @$ #@  &&&&&&&&",
"&&Oo&  #$#$$$#$#  &&Oo&&",
"&&oo $#@$$#$$$#@#$ &oo&&",
"&&&& #$$$$$$$$$$$# &&&&&",
"&&&& @$$$$$$$$$$$@ &&&&&",
"&Oo& $$$%$$$$$%$$$# &&&&",
"&oo $$$% %$$$% %$$@ &&&&",
"&&& #$$%%%$$$%%%$$ &&&&&",
"&&&& $#@$$$$$$$@#$# &&&&",
"&&& #$$.%@@@@@%.$@@ &&&&",
"&&& $#$$.+++++.$@# &&&&&",
"&OO& @#$$.XXX.$##@ &OOo&",
"OOoO& @@#$###$#@@ &OOoO&",
"OOOO& #@@oOOOo@#@ &ooOo&",
"ooOo&&    @#@    &&&oo&&",
"&oo&&&&&&&   &&&&&&&&&&&",
"&&&&&&&&&&&&&&&&&&&&&&&&",
"&&&&&&&&&&&&&&&&&&&&&&&&"
};
