/* XPM */
static char *result[] = {
/* columns rows colors chars-per-pixel */
"24 24 12 1 ",
"  c black",
". c #682F00",
"X c #1A7A00",
"o c #9C4F12",
"O c #DA6812",
"+ c #4FAD1A",
"@ c #70DA47",
"# c #DAA558",
"$ c #82F658",
"% c #F6DA93",
"& c #F6F6F6",
"* c #FFFFFF",
/* pixels */
"************************",
"************************",
"************************",
"************************",
"**********    **********",
"********* @$$@ *********",
"******** @$$$$+ ********",
"******** X$&&$X ********",
"******** X++++X ********",
"******** .+++X. ********",
"******* .oOo..o. *******",
"******* oO#Oo.o. *******",
"******* #O##ooo# *******",
"******* #%&&&&%# *******",
"******* #%&@@&%# *******",
"******* #%@&&@%# *******",
"******* #%&++&%# *******",
"******* o#++++#. *******",
"******** oOOoo. ********",
"*********      *********",
"************************",
"************************",
"************************",
"************************"
};
