/* XPM */
static char *result[] = {
/* columns rows colors chars-per-pixel */
"24 24 10 1 ",
"% c #FFFFFF",
"  c black",
". c #980000",
"X c #D03800",
"o c #A06800",
"O c #D8B000",
"+ c #F8F000",
"@ c #F88058",
"# c #485890",
"$ c #F8F8F8",
/* pixels */
"%%%%%%%%%%%%%%%%%%%%%%%%",
"%%%%%%X%%%%%%%%%%%%%%%%%",
"%%%%%X%%%%%%%%%%%%%%%%%%",
"%%%%XXX%%%     %%%%%%%%%",
"%%%XX+X%% X@@@X %%%%%%%%",
"%%%X@@X% X@@@@@X %%%%%%%",
"%%%@@+@% @@@@@@@ %%%%%%%",
"%%@@++@ X@@@@@@@X %%%%%%",
"%%%@$@% $ @@@@@$  %%%%%%",
"%%% @ %   @@@@@   %%%%%%",
"%%% X % # @@@@@ # %%%%%%",
"%%% X % @@@@@@@@@ %%%%%%",
"%%% XX  X@@@@@@@X  %%%%%",
"%%%%  X@ X@@@@@X @X %%%%",
"%%%% X@X. .XXX. .X@X %%%",
"%%%% @X XX     XX X@ %%%",
"%%%%%   XOOoooooX   %%%%",
"%%%%%% .XO+OOOOoX. %%%%%",
"%%%%%% X@.O+OOo.@X %%%%%",
"%%%%%%% ...ooo... %%%%%%",
"%%%%%% X@XX   XX@X %%%%%",
"%%%%%% $ $ %%% $ $ %%%%%",
"%%%%%%% % %%%%% % %%%%%%",
"%%%%%%%%%%%%%%%%%%%%%%%%"
};
